<svg width="684" height="684" viewBox="0 0 684 684" fill="none" xmlns="http://www.w3.org/2000/svg">
<path fill-rule="evenodd" clip-rule="evenodd" d="M341.971 500.24C429.504 500.24 500.464 429.28 500.464 341.747C500.464 254.214 429.504 183.254 341.971 183.254C254.438 183.254 183.479 254.214 183.479 341.747C183.479 429.28 254.438 500.24 341.971 500.24ZM341.971 586.494C477.142 586.494 586.718 476.917 586.718 341.747C586.718 206.577 477.142 97 341.971 97C206.801 97 97.2245 206.577 97.2245 341.747C97.2245 476.917 206.801 586.494 341.971 586.494Z" fill="white" style="fill:white;fill-opacity:1;"/>
<path fill-rule="evenodd" clip-rule="evenodd" d="M341.971 500.24C429.504 500.24 500.464 429.28 500.464 341.747C500.464 254.214 429.504 183.254 341.971 183.254C254.438 183.254 183.479 254.214 183.479 341.747C183.479 429.28 254.438 500.24 341.971 500.24ZM341.971 586.494C477.142 586.494 586.718 476.917 586.718 341.747C586.718 206.577 477.142 97 341.971 97C206.801 97 97.2245 206.577 97.2245 341.747C97.2245 476.917 206.801 586.494 341.971 586.494Z" fill="black" style="fill:black;fill-opacity:1;"/>
</svg>
