<svg width="2288" height="684" viewBox="0 0 2288 684" fill="none" xmlns="http://www.w3.org/2000/svg">
<path d="M1195.67 99.2246C1249.4 99.2246 1294.68 113.388 1331.51 141.714C1368.94 169.437 1391.58 207.105 1399.43 254.717L1316.11 270.085H1312.49C1307.06 242.362 1293.77 219.761 1272.64 202.283C1251.51 184.806 1226.15 176.066 1196.57 176.066C1154.31 176.066 1120.2 191.435 1094.24 222.172C1068.28 252.306 1055.29 292.385 1055.29 342.407C1055.29 392.43 1068.28 432.81 1094.24 463.547C1120.2 494.284 1154.31 509.651 1196.57 509.651C1227.97 509.651 1254.23 500.912 1275.36 483.435C1296.49 465.354 1310.08 440.042 1316.11 407.497L1403.05 423.77C1393.39 474.395 1369.85 514.172 1332.41 543.101C1295.59 572.029 1250 586.494 1195.67 586.494C1150.39 586.494 1110.24 576.248 1075.22 555.757C1040.2 535.266 1013.03 506.639 993.713 469.875C974.393 432.509 964.733 390.019 964.733 342.407C964.733 294.795 974.393 252.607 993.713 215.844C1013.03 179.08 1040.2 150.453 1075.22 129.962C1110.24 109.471 1150.39 99.2246 1195.67 99.2246ZM1945.97 97C2081.14 97.0001 2190.72 206.577 2190.72 341.747C2190.72 476.917 2081.14 586.494 1945.97 586.494C1810.8 586.494 1701.22 476.917 1701.22 341.747C1701.22 206.577 1810.8 97 1945.97 97ZM615.983 99.2246C728.457 99.2248 819.635 190.433 819.635 302.942V585.518H727.663V302.942C727.663 241.243 677.662 191.227 615.983 191.227C554.304 191.227 504.304 241.243 504.304 302.942V516.16L504.303 585.518H412.331V302.942C412.331 241.243 362.33 191.227 300.651 191.227C238.972 191.227 188.972 241.243 188.972 302.942V585.518H97V302.942C97 190.433 188.178 99.2248 300.651 99.2246C364.211 99.2246 420.97 128.352 458.317 173.99C495.664 128.352 552.424 99.2246 615.983 99.2246ZM939.921 585.518H847.949V99.2246H939.921V585.518ZM1723.44 190.749H1658.83C1581.61 190.749 1519.01 253.37 1519.01 330.609V583.261H1427.52V330.609C1427.52 202.827 1531.08 99.2268 1658.83 99.2266H1723.44V190.749ZM1945.97 183.255C1858.44 183.255 1787.48 254.214 1787.48 341.747C1787.48 429.28 1858.44 500.239 1945.97 500.239C2033.5 500.239 2104.46 429.28 2104.46 341.747C2104.46 254.214 2033.5 183.255 1945.97 183.255Z" fill="white" style="fill:white;fill-opacity:1;"/>
</svg>
